<?xml version="1.0" encoding="UTF-8" standalone="no"?>
<svg
   xmlns:dc="http://purl.org/dc/elements/1.1/"
   xmlns:cc="http://creativecommons.org/ns#"
   xmlns:rdf="http://www.w3.org/1999/02/22-rdf-syntax-ns#"
   xmlns:svg="http://www.w3.org/2000/svg"
   xmlns="http://www.w3.org/2000/svg"
   id="svg8"
   version="1.1"
   style="height: 512px; width: 512px;"
   viewBox="0 0 512 512">
  <metadata
     id="metadata14">
    <rdf:RDF>
      <cc:Work
         rdf:about="">
        <dc:format>image/svg+xml</dc:format>
        <dc:type
           rdf:resource="http://purl.org/dc/dcmitype/StillImage" />
        <dc:title></dc:title>
      </cc:Work>
    </rdf:RDF>
  </metadata>
  <defs
     id="defs12" />
  <g
     transform="matrix(0.76707203,0,0,0.76707203,99.733697,110.27178)"
     id="g3758">
    <path
       style="opacity:0;fill:#000000"
       d="M 0,0 H 512 V 512 H 0 Z"
       id="path2" />
    <g
       class=""
       transform="translate(-122.32102,39.380576)"
       id="g6">
      <path
         d="M 79.625,22.03 C 62.931,22.304 48.615,27.36 38.405,37.688 5.743,70.735 27.53,145.313 87.22,204.313 c 39.992,39.53 91.568,45.025 125.03,56.593 -38.19,35.214 -80.874,67.594 -130.438,99.28 l 61.594,60.876 c 33.267,-53.395 68.052,-99.412 106.406,-140.593 66.466,44.55 113.05,126.476 157.594,206.967 l 85.5,-86.5 C 410.7,356.684 328.326,311.976 283.656,246.249 324.87,207.035 370.376,172.109 422.312,138.905 L 360.72,78.03 C 330.25,126.933 298.794,169.715 263.875,208.594 252.171,175.156 245.613,124.119 205.595,84.562 164.556,44 116.35,21.43 79.624,22.032 Z m 16.97,47.064 c 20.94,0.415 50.89,16.01 77.436,42.25 36.934,36.505 53.305,79.782 36.595,96.687 -16.71,16.907 -60.194,1.037 -97.125,-35.468 C 76.57,136.06 60.165,92.75 76.875,75.844 c 4.7,-4.755 11.525,-6.913 19.72,-6.75 z"
         id="path4"
         style="fill:#4a4a4a" />
    </g>
    <g
       id="g3703"
       transform="translate(-23.164915,-141.30831)">
      <path
         id="path3686"
         d="M 0,0 H 512 V 512 H 0 Z"
         style="opacity:0;fill:#000000" />
      <g
         id="g3690"
         class="">
        <path
           id="path3688"
           d="m 313.203,25.94 -0.133,24.67 -18.12,16.743 24.67,0.132 16.743,18.12 0.133,-24.67 18.12,-16.743 -24.67,-0.132 z m 91.58,50.12 -19.313,15.35 -24.4,-3.638 15.35,19.313 -3.637,24.4 19.313,-15.35 24.4,3.637 -15.35,-19.312 z m -364.913,4.146 -7.116,16.268 7.637,3.34 256,112 8.247,3.607 -0.1,0.227 0.61,0.266 7.214,-16.492 -8.243,-3.607 -44.113,-19.298 a 102.607,43.83 0 0 1 52.088,-6.13 102.607,43.83 0 0 1 102.606,43.833 102.607,43.83 0 0 1 -102.608,43.83 102.607,43.83 0 0 1 -102.608,-43.83 102.607,43.83 0 0 1 8.262,-17.162 L 184.932,182.7 c -12.552,5.49 -22.514,11.71 -29.192,17.96 -7.646,7.16 -10.802,13.782 -10.802,20.134 0,6.352 3.156,12.975 10.802,20.133 7.646,7.158 19.596,14.274 34.81,20.3 30.43,12.047 73.71,19.835 121.542,19.835 47.832,0 91.11,-7.788 121.54,-19.836 15.215,-6.025 27.165,-13.14 34.81,-20.3 7.647,-7.157 10.804,-13.78 10.804,-20.132 0,-6.352 -3.157,-12.975 -10.803,-20.133 -7.646,-7.16 -19.596,-14.275 -34.81,-20.3 -30.43,-12.048 -73.71,-19.836 -121.54,-19.836 -26.422,0 -51.44,2.386 -73.683,6.543 L 48.117,83.813 39.871,80.206 Z m 204.903,4.31 0.077,16.708 -12.16,11.46 16.708,-0.076 11.46,12.16 -0.075,-16.708 12.157,-11.46 -16.706,0.075 -11.46,-12.16 z M 215.94,286.592 c -0.147,15.018 -0.44,29.74 -1.038,44.308 67.544,29.705 126.598,29.746 194.383,0.113 -0.6,-14.603 -0.894,-29.364 -1.043,-44.42 -27.33,7.925 -60.396,12.467 -96.15,12.467 -35.756,0 -68.82,-4.54 -96.15,-12.467 z m -2.004,63.467 c -0.555,8.977 -1.254,17.925 -2.13,26.877 l 0.555,0.25 c 69.454,31.175 129.756,31.177 199.486,-0.006 l 0.535,-0.238 c -0.874,-8.92 -1.572,-17.838 -2.126,-26.785 -66.975,27.646 -129.55,27.616 -196.318,-0.097 z m 200.552,45.595 c -70.003,30.062 -135.025,30.067 -204.793,0.002 -2.287,17.913 -5.385,35.95 -9.603,54.403 0,48 224,48 224,0 -4.218,-18.455 -7.316,-36.49 -9.604,-54.405 z"
           style="fill:#4a4a4a" />
      </g>
    </g>
  </g>
</svg>
