<?xml version="1.0" encoding="UTF-8" standalone="no"?>
<svg
   xmlns:dc="http://purl.org/dc/elements/1.1/"
   xmlns:cc="http://creativecommons.org/ns#"
   xmlns:rdf="http://www.w3.org/1999/02/22-rdf-syntax-ns#"
   xmlns:svg="http://www.w3.org/2000/svg"
   xmlns="http://www.w3.org/2000/svg"
   viewBox="0 0 512 512"
   style="height: 512px; width: 512px;"
   version="1.1"
   id="svg8">
  <metadata
     id="metadata14">
    <rdf:RDF>
      <cc:Work
         rdf:about="">
        <dc:format>image/svg+xml</dc:format>
        <dc:type
           rdf:resource="http://purl.org/dc/dcmitype/StillImage" />
        <dc:title></dc:title>
      </cc:Work>
    </rdf:RDF>
  </metadata>
  <defs
     id="defs12" />
  <path
     style="opacity:0;fill:#000000;stroke-width:0.76707202"
     d="M 99.733697,110.27178 H 492.47458 V 503.01266 H 99.733697 Z"
     id="path2" />
  <g
     class=""
     transform="matrix(0.76707203,0,0,0.76707203,5.9046639,140.47952)"
     id="g6">
    <path
       d="M 79.625,22.03 C 62.931,22.304 48.615,27.36 38.405,37.688 5.743,70.735 27.53,145.313 87.22,204.313 c 39.992,39.53 91.568,45.025 125.03,56.593 -38.19,35.214 -80.874,67.594 -130.438,99.28 l 61.594,60.876 c 33.267,-53.395 68.052,-99.412 106.406,-140.593 66.466,44.55 113.05,126.476 157.594,206.967 l 85.5,-86.5 C 410.7,356.684 328.326,311.976 283.656,246.249 324.87,207.035 370.376,172.109 422.312,138.905 L 360.72,78.03 C 330.25,126.933 298.794,169.715 263.875,208.594 252.171,175.156 245.613,124.119 205.595,84.562 164.556,44 116.35,21.43 79.624,22.032 Z m 16.97,47.064 c 20.94,0.415 50.89,16.01 77.436,42.25 36.934,36.505 53.305,79.782 36.595,96.687 -16.71,16.907 -60.194,1.037 -97.125,-35.468 C 76.57,136.06 60.165,92.75 76.875,75.844 c 4.7,-4.755 11.525,-6.913 19.72,-6.75 z"
       id="path4"
       style="fill:#4a4a4a" />
  </g>
  <g
     transform="matrix(0.71610169,0,0,0.71610169,203.4058,23.643745)"
     id="g3709">
    <path
       style="opacity:0;fill:#000000"
       d="M 0,0 H 512 V 512 H 0 Z"
       id="path3692" />
    <g
       class=""
       id="g3696">
      <path
         style="fill:#4a4a4a"
         d="m 363.783,23.545 c -9.782,0.057 -16.583,3.047 -20.744,10.22 -17.51,30.18 -38.432,61.645 -48.552,97.245 2.836,0.83 5.635,1.787 8.373,2.853 7.353,2.863 14.38,6.482 20.542,10.858 27.534,-25.542 58.165,-45.21 87.45,-65.462 11.356,-7.854 12.273,-13.584 10.183,-20.83 -2.09,-7.246 -9.868,-16.365 -20.525,-23.176 -10.658,-6.81 -23.87,-11.33 -34.73,-11.68 -0.68,-0.022 -1.345,-0.03 -1.997,-0.027 z m -68.998,0.746 c -10.02,-0.182 -17.792,6.393 -23.924,20.24 -8.94,20.194 -10.212,53.436 -1.446,83.185 0.156,-0.008 0.31,-0.023 0.467,-0.03 1.99,-0.087 3.99,-0.072 6,0.03 9.436,-34.822 27.966,-64.72 44.013,-91.528 -10.31,-8.496 -18.874,-11.782 -25.108,-11.896 z M 197.5,82.5 187,97.97 c 14.82,10.04 29.056,19.725 39.813,31.374 3.916,4.24 7.37,8.722 10.31,13.607 3.77,-4.73 8.51,-8.378 13.69,-10.792 0.407,-0.188 0.82,-0.355 1.228,-0.53 -3.423,-5.44 -7.304,-10.418 -11.51,-14.972 C 227.765,102.83 212.29,92.52 197.5,82.5 Z m 223.77,12.27 c -29.255,20.228 -58.575,39.152 -84.348,62.78 0.438,0.576 0.848,1.168 1.258,1.76 20.68,-6.75 49.486,-15.333 73.916,-19.41 11.484,-1.916 15.66,-6.552 17.574,-13.228 1.914,-6.676 0.447,-16.71 -5.316,-26.983 -0.924,-1.647 -1.96,-3.29 -3.083,-4.92 z m -223.938,47.87 c -14.95,0.2 -29.732,4.3 -43.957,12.766 l 9.563,16.03 c 21.657,-12.89 42.626,-14.133 65.232,-4.563 0.52,-5.592 1.765,-10.66 3.728,-15.21 0.35,-0.806 0.73,-1.586 1.123,-2.354 -11.87,-4.52 -23.83,-6.827 -35.688,-6.67 z m 75.8,3.934 c -5.578,-0.083 -10.597,0.742 -14.427,2.526 -4.377,2.038 -7.466,4.914 -9.648,9.97 -0.884,2.047 -1.572,4.54 -1.985,7.494 0.456,-0.007 0.91,-0.03 1.365,-0.033 16.053,-0.084 32.587,2.77 49.313,9.19 7.714,2.96 15.062,7.453 22.047,13.184 3.217,-2.445 4.99,-4.72 5.773,-6.535 1.21,-2.798 1.095,-5.184 -0.634,-8.82 -3.46,-7.275 -15.207,-16.955 -28.856,-22.27 -6.824,-2.658 -13.98,-4.224 -20.523,-4.614 -0.818,-0.05 -1.627,-0.08 -2.424,-0.092 z m -24.757,38.457 c -22.982,0.075 -44.722,7.386 -65,19.782 -32.445,19.835 -60.565,53.124 -80.344,90.032 -19.777,36.908 -31.133,77.41 -31.186,110.53 -0.053,33.06 10.26,57.27 32.812,67.782 0.043,0.02 0.082,0.043 0.125,0.063 h 0.032 c 24.872,11.51 65.616,19.337 108.407,20.092 42.79,0.756 87.79,-5.457 121.874,-20.187 21.96,-9.49 34.545,-28.452 40.5,-54.156 5.954,-25.705 4.518,-57.657 -2.375,-89.314 -6.894,-31.657 -19.2,-63.06 -34.095,-87.875 -14.894,-24.814 -32.614,-42.664 -48.063,-48.593 -14.664,-5.627 -28.898,-8.2 -42.687,-8.156 z"
         id="path3694" />
    </g>
  </g>
</svg>
