<svg xmlns="http://www.w3.org/2000/svg" viewBox="0 0 512 512" style="height: 512px; width: 512px;"><g class="" transform="translate(0,0)" style="touch-action: none;"><g><path d="M128.912 21.563C128.405 21.575 127.902 21.606 127.408 21.673C97.753 25.525 74.6 57.76 74.6 96.662C74.6 118.209 81.99 137.449 93.367 151.162C31.689 162.755 27.025 266.602 27.025 339.509L69.797 339.509L81.145 491.667L189.825 491.667L199.86 339.51L240.453 339.51C240.453 266.402 241.923 160.727 174.549 150.29C185.439 136.643 192.442 117.677 192.442 96.662C192.442 55.166 165.997 21.672 133.519 21.672C131.996 21.672 130.432 21.526 128.911 21.562Z" class="selected" fill="#9013fe" fill-opacity="1"></path><path d="M368.74 21.563C368.233 21.575 367.73 21.606 367.236 21.673C337.581 25.526 314.428 57.76 314.428 96.663C314.428 118.21 321.818 137.45 333.195 151.163C271.517 162.756 266.855 266.603 266.855 339.51L297.178 339.51L287.008 328.088C286.698 276.251 288.866 232.908 311.016 192.604L309.473 339.51L309.625 339.51L320.973 491.668L406.986 491.668L340.956 479.662C329.08 375.292 322.554 274.118 336.866 171.302C336.866 171.302 346.321 165.232 360.896 157.906C346.739 145.826 337.344 124.666 337.344 100.561C337.344 62.997 360.141 32.548 388.262 32.548C397.149 32.548 405.502 35.594 412.772 40.94C402.322 28.96 388.492 21.672 373.348 21.672C371.825 21.672 370.261 21.526 368.74 21.562Z" class="" fill="#9b9b9b" fill-opacity="1"></path><path d="M437.932 192.871L439.617 340.085L461.941 339.823C462.251 287.987 460.081 233.176 437.933 192.873Z" class="" fill="#9b9b9b" fill-opacity="1"></path><path d="M439.617 340.085L439.615 340.085L439.617 340.091L439.617 340.085Z" class="" fill="#fff" fill-opacity="1"></path></g></g></svg>